<svg width="130" height="39" fill="none" xmlns="http://www.w3.org/2000/svg"><path d="M125.375 39H4.554C2.044 39 0 36.925 0 34.385V4.608C0 2.067 2.043 0 4.554 0h120.821C127.884 0 130 2.067 130 4.608v29.777c0 2.54-2.116 4.615-4.625 4.615z" fill="#A6A6A6"/><path d="M129.068 34.386c0 2.063-1.651 3.734-3.692 3.734H4.554c-2.04 0-3.697-1.67-3.697-3.734V4.606c0-2.06 1.656-3.737 3.697-3.737h120.821c2.042 0 3.692 1.677 3.692 3.739l.001 29.78z" fill="#000"/><path d="M29.012 19.29c-.028-3.143 2.541-4.672 2.659-4.743-1.455-2.148-3.71-2.442-4.503-2.465-1.894-.202-3.731 1.148-4.696 1.148-.985 0-2.47-1.128-4.072-1.095-2.06.032-3.988 1.24-5.046 3.116-2.182 3.825-.554 9.446 1.536 12.537 1.046 1.514 2.268 3.205 3.867 3.146 1.565-.066 2.15-1.01 4.038-1.01 1.871 0 2.42 1.01 4.051.972 1.68-.028 2.737-1.521 3.746-3.05 1.209-1.735 1.694-3.444 1.714-3.532-.04-.013-3.262-1.258-3.294-5.025zm-3.082-9.242c.842-1.065 1.418-2.515 1.258-3.986-1.218.054-2.741.853-3.618 1.895-.777.918-1.47 2.424-1.29 3.84 1.367.103 2.772-.7 3.65-1.749zm25.728 20.668h-2.187l-1.198-3.811H44.11l-1.14 3.811h-2.13l4.126-12.975h2.548l4.145 12.975zm-3.746-5.41l-1.083-3.388c-.115-.346-.33-1.162-.646-2.445h-.039a95.44 95.44 0 01-.608 2.445l-1.065 3.388h3.441zm14.355.617c0 1.591-.425 2.849-1.274 3.772-.76.822-1.705 1.233-2.833 1.233-1.217 0-2.091-.443-2.624-1.328h-.038v4.928h-2.053V24.44c0-1-.026-2.027-.077-3.08h1.806l.115 1.483h.038c.685-1.117 1.724-1.675 3.118-1.675 1.09 0 2 .436 2.728 1.308.73.874 1.094 2.023 1.094 3.447zm-2.091.076c0-.91-.203-1.661-.609-2.252-.444-.616-1.04-.924-1.787-.924-.507 0-.967.171-1.378.51a2.37 2.37 0 00-.808 1.338 2.756 2.756 0 00-.096.634v1.56c0 .68.207 1.255.619 1.724.412.469.947.703 1.606.703.773 0 1.375-.303 1.806-.905.43-.604.647-1.4.647-2.388zm12.719-.076c0 1.591-.424 2.849-1.275 3.772-.76.822-1.704 1.233-2.832 1.233-1.217 0-2.091-.443-2.623-1.328h-.038v4.928h-2.053V24.44c0-1-.026-2.027-.076-3.08h1.805l.115 1.483h.038c.684-1.117 1.723-1.675 3.118-1.675 1.09 0 2 .436 2.73 1.308.726.874 1.091 2.023 1.091 3.447zm-2.091.076c0-.91-.203-1.661-.61-2.252-.444-.616-1.038-.924-1.786-.924-.508 0-.967.171-1.379.51-.412.34-.68.786-.807 1.338a2.806 2.806 0 00-.095.634v1.56c0 .68.206 1.255.616 1.724.412.468.948.703 1.608.703.773 0 1.375-.303 1.806-.905.431-.604.647-1.4.647-2.388zm13.974 1.079c0 1.103-.378 2.001-1.138 2.694-.835.758-1.997 1.136-3.49 1.136-1.38 0-2.485-.269-3.322-.808l.476-1.733c.901.552 1.89.83 2.968.83.773 0 1.375-.178 1.807-.531.43-.353.645-.827.645-1.418 0-.526-.177-.97-.532-1.33-.354-.36-.944-.694-1.768-1.003-2.244-.847-3.365-2.088-3.365-3.72 0-1.067.393-1.942 1.18-2.622.784-.682 1.83-1.022 3.137-1.022 1.166 0 2.135.206 2.908.616l-.513 1.694c-.722-.397-1.539-.596-2.453-.596-.722 0-1.286.18-1.69.539a1.55 1.55 0 00-.514 1.175c0 .513.196.937.588 1.27.342.308.963.642 1.865 1.002 1.102.45 1.912.975 2.433 1.577.52.6.778 1.352.778 2.25zm6.788-4.158h-2.263v4.543c0 1.155.399 1.732 1.198 1.732.367 0 .671-.032.912-.096l.057 1.578c-.405.153-.937.23-1.597.23-.81 0-1.444-.25-1.902-.75-.455-.502-.684-1.342-.684-2.523v-4.716h-1.348v-1.56h1.348v-1.713l2.016-.616v2.33h2.263v1.561zm10.21 3.041c0 1.438-.406 2.619-1.217 3.542-.85.95-1.979 1.425-3.385 1.425-1.356 0-2.436-.456-3.24-1.366-.806-.91-1.208-2.06-1.208-3.446 0-1.45.414-2.637 1.245-3.56.829-.925 1.948-1.387 3.355-1.387 1.356 0 2.447.455 3.27 1.367.788.884 1.18 2.026 1.18 3.425zm-2.13.067c0-.862-.182-1.603-.55-2.22-.43-.747-1.046-1.119-1.844-1.119-.825 0-1.452.373-1.882 1.12-.369.617-.55 1.37-.55 2.258 0 .863.181 1.603.55 2.22.444.746 1.064 1.119 1.864 1.119.784 0 1.4-.38 1.843-1.14.379-.628.57-1.376.57-2.238zm8.804-2.84a3.515 3.515 0 00-.647-.057c-.723 0-1.281.276-1.674.828-.342.488-.513 1.104-.513 1.848v4.91h-2.052l.019-6.41c0-1.079-.026-2.06-.077-2.946h1.788l.075 1.79h.057c.217-.615.559-1.11 1.027-1.482a2.46 2.46 0 011.484-.501c.189 0 .361.014.513.038v1.982zm9.182 2.407c0 .373-.024.687-.075.943h-6.16c.025.924.322 1.631.894 2.119.519.436 1.19.654 2.015.654.912 0 1.744-.147 2.492-.442l.321 1.442c-.874.387-1.906.579-3.097.579-1.433 0-2.558-.427-3.377-1.28-.816-.854-1.225-2-1.225-3.436 0-1.411.38-2.586 1.142-3.523.797-1 1.875-1.5 3.23-1.5 1.332 0 2.34.5 3.025 1.5.542.794.815 1.777.815 2.944zm-1.958-.539c.013-.616-.12-1.148-.399-1.598-.355-.578-.901-.867-1.636-.867-.671 0-1.217.282-1.634.848-.342.45-.545.988-.608 1.616h4.277v.001zM47.233 9.759c0 1.147-.34 2.011-1.018 2.591-.63.536-1.523.804-2.68.804-.574 0-1.066-.026-1.477-.076v-6.27a10.763 10.763 0 011.739-.133c1.102 0 1.933.243 2.494.728.627.55.942 1.334.942 2.356zm-1.064.028c0-.744-.194-1.314-.583-1.712-.39-.397-.957-.596-1.706-.596a4.22 4.22 0 00-.813.066v4.767c.125.02.352.029.682.029.773 0 1.369-.218 1.788-.653.42-.435.632-1.068.632-1.901zm6.706.973c0 .708-.199 1.287-.598 1.741-.418.467-.971.7-1.663.7-.666 0-1.197-.223-1.592-.671-.395-.448-.593-1.012-.593-1.693 0-.712.203-1.296.612-1.75.408-.453.957-.68 1.648-.68.667 0 1.202.223 1.608.671.385.435.578.997.578 1.683zm-1.046.034c0-.424-.09-.788-.271-1.091-.212-.367-.513-.55-.905-.55-.406 0-.714.183-.926.55-.18.303-.27.673-.27 1.11 0 .424.09.787.27 1.09.219.367.523.55.916.55.385 0 .688-.186.905-.56.187-.308.28-.675.28-1.099zm8.611-2.293l-1.42 4.596h-.925l-.588-1.996c-.15-.498-.27-.993-.365-1.485h-.018c-.088.505-.21 1-.365 1.485l-.625 1.996h-.935l-1.336-4.596H54.9l.514 2.185c.124.517.226 1.01.308 1.475h.018c.075-.384.2-.873.375-1.465l.644-2.194h.822l.617 2.147c.15.524.271 1.028.364 1.513h.029c.068-.473.17-.977.308-1.513l.55-2.147h.991v-.001zm5.232 4.596h-1.01v-2.633c0-.81-.303-1.216-.914-1.216-.3 0-.541.11-.729.334-.186.223-.28.487-.28.788v2.726h-1.01V9.814c0-.403-.012-.841-.036-1.315h.887l.047.718h.028a1.47 1.47 0 01.523-.554 1.69 1.69 0 01.915-.259c.423 0 .776.139 1.056.417.349.34.523.848.523 1.523v2.753zm2.783 0h-1.008V6.392h1.008v6.705zm5.942-2.337c0 .708-.2 1.287-.598 1.741-.418.467-.973.7-1.664.7-.667 0-1.197-.223-1.592-.671-.395-.448-.592-1.012-.592-1.693 0-.712.203-1.296.611-1.75.408-.453.957-.68 1.648-.68.667 0 1.201.223 1.608.671.385.435.579.997.579 1.683zm-1.048.034c0-.424-.09-.788-.27-1.091-.212-.367-.514-.55-.905-.55-.406 0-.715.183-.925.55-.181.303-.271.673-.271 1.11 0 .424.09.787.27 1.09.22.367.523.55.916.55.386 0 .687-.186.905-.56.187-.308.28-.675.28-1.099zm5.931 2.303h-.905l-.076-.53h-.027c-.31.423-.753.634-1.326.634-.429 0-.776-.14-1.037-.416a1.314 1.314 0 01-.355-.936c0-.562.231-.99.696-1.286.464-.296 1.117-.442 1.958-.435v-.086c0-.605-.314-.907-.943-.907-.448 0-.842.114-1.183.34l-.205-.67c.421-.265.942-.398 1.557-.398 1.186 0 1.781.634 1.781 1.902V12c0 .46.022.825.066 1.096zm-1.047-1.58v-.708c-1.113-.02-1.67.29-1.67.926 0 .24.064.42.194.54a.7.7 0 00.493.178c.221 0 .428-.07.617-.212a.872.872 0 00.366-.723zm6.782 1.58h-.895l-.047-.738h-.028c-.287.562-.774.842-1.458.842-.547 0-1.003-.217-1.364-.652-.361-.435-.541-1-.541-1.692 0-.744.195-1.347.588-1.807.38-.43.847-.644 1.401-.644.61 0 1.036.208 1.28.624h.018V6.392h1.01v5.467c0 .447.012.86.036 1.238zM83.97 11.16v-.767c0-.132-.01-.24-.027-.321a1.166 1.166 0 00-.365-.62.984.984 0 00-.675-.25 1.03 1.03 0 00-.888.454c-.215.304-.324.69-.324 1.164 0 .454.103.822.31 1.106.219.302.513.454.882.454a.968.968 0 00.797-.38 1.27 1.27 0 00.29-.841zm9.676-.4c0 .708-.2 1.287-.598 1.741-.418.467-.97.7-1.663.7-.665 0-1.196-.223-1.593-.671-.394-.448-.592-1.012-.592-1.693 0-.712.203-1.296.612-1.75.408-.453.957-.68 1.65-.68.665 0 1.201.223 1.605.671.386.435.58.997.58 1.683zm-1.046.034c0-.424-.09-.788-.27-1.091-.213-.367-.513-.55-.906-.55-.405 0-.713.183-.926.55-.18.303-.27.673-.27 1.11 0 .424.09.787.27 1.09.219.367.523.55.916.55.385 0 .689-.186.906-.56.186-.308.28-.675.28-1.099zm6.473 2.303h-1.009v-2.633c0-.81-.304-1.216-.915-1.216-.3 0-.542.11-.728.334a1.19 1.19 0 00-.28.788v2.726h-1.01V9.814c0-.403-.012-.841-.037-1.315h.886l.048.718h.027c.119-.223.294-.407.523-.554.275-.172.58-.259.916-.259.423 0 .775.139 1.056.417.35.34.523.848.523 1.523v2.753zm6.791-3.831h-1.111V11.5c0 .568.197.851.588.851.181 0 .332-.015.45-.047l.026.775c-.199.076-.461.114-.784.114-.398 0-.709-.123-.933-.369-.225-.245-.337-.659-.337-1.239V9.266h-.663v-.765h.663V7.66l.989-.303V8.5h1.111v.766h.001zm5.343 3.831h-1.01v-2.613c0-.824-.305-1.236-.914-1.236-.468 0-.788.239-.963.716-.03.1-.047.224-.047.368v2.764h-1.009V6.392h1.009v2.77h.019c.318-.504.773-.756 1.363-.756.418 0 .764.139 1.039.417.341.346.513.86.513 1.541v2.733zm5.511-2.515a2.5 2.5 0 01-.038.463h-3.026c.013.454.158.8.438 1.04.256.214.586.322.991.322a3.31 3.31 0 001.224-.218l.158.71c-.431.19-.937.284-1.524.284-.703 0-1.257-.21-1.657-.63-.403-.418-.602-.98-.602-1.687 0-.693.186-1.27.56-1.73.391-.492.92-.738 1.587-.738.653 0 1.149.246 1.484.738.271.39.405.872.405 1.446zm-.963-.265a1.385 1.385 0 00-.196-.785c-.175-.283-.442-.426-.803-.426a.955.955 0 00-.803.417 1.556 1.556 0 00-.299.794h2.101z" fill="#fff"/></svg>