<svg width="130" height="39" fill="none" xmlns="http://www.w3.org/2000/svg"><g clip-path="url(#clip0)"><path d="M125.171 39H4.829C2.158 39 0 36.781 0 34.112V4.888C0 2.184 2.158 0 4.829 0h120.376c2.637 0 4.829 2.184 4.829 4.888v29.224C130 36.782 127.808 39 125.171 39z" fill="#000"/><path d="M125.171.763c2.226 0 4.041 1.837 4.041 4.09v29.224c0 2.254-1.815 4.091-4.041 4.091H4.829c-2.226 0-4.041-1.837-4.041-4.09V4.887c0-2.253 1.815-4.09 4.04-4.09h120.343V.762zm0-.763H4.829C2.158 0 0 2.184 0 4.888v29.224C0 36.782 2.158 39 4.829 39h120.376c2.637 0 4.829-2.184 4.829-4.888V4.888C130 2.184 127.808 0 125.171 0z" fill="#262626"/><path d="M45.65 9.984c0 .832-.239 1.456-.718 1.941-.548.59-1.268.867-2.124.867-.822 0-1.54-.278-2.123-.867a3 3 0 01-.89-2.184 3 3 0 01.89-2.184c.582-.59 1.301-.867 2.123-.867.411 0 .822.07 1.199.243.377.173.685.381.89.659l-.513.52c-.377-.45-.925-.694-1.576-.694-.616 0-1.13.208-1.575.66-.445.415-.65 1.004-.65 1.698 0 .693.205 1.248.65 1.698.445.416.959.66 1.575.66.65 0 1.199-.209 1.61-.66.274-.277.445-.693.48-1.178h-2.09v-.694h2.809c.034.104.034.243.034.382zm4.453-2.427h-2.637v1.837h2.363v.694h-2.363v1.837h2.637v.728h-3.356V6.83h3.356v.728zm3.117 5.131h-.754v-5.13h-1.61v-.729h3.973v.728h-1.61v5.13zm4.486 0V6.829h.753v5.859h-.753zm4.041 0h-.754v-5.13h-1.61v-.729h3.973v.728h-1.61v5.13zm9.143-.763c-.582.59-1.267.901-2.123.901-.856 0-1.54-.312-2.123-.9-.582-.59-.856-1.318-.856-2.185s.274-1.595.856-2.184c.582-.59 1.267-.901 2.123-.901.856 0 1.541.312 2.123.901.583.59.857 1.317.857 2.15-.035.9-.309 1.629-.857 2.218zm-3.698-.485c.41.45.959.658 1.575.658a2.11 2.11 0 001.576-.658c.41-.45.65-1.006.65-1.664 0-.659-.205-1.248-.65-1.664-.412-.45-.96-.659-1.576-.659-.616 0-1.13.208-1.575.659a2.404 2.404 0 00-.65 1.664c0 .658.205 1.213.65 1.664zm5.582 1.248V6.829h.89l2.809 4.541h.034l-.034-1.144V6.794h.753v5.86h-.788l-2.945-4.785h-.034l.034 1.144v3.64h-.719v.035z" fill="#fff" stroke="#fff" stroke-width=".2" stroke-miterlimit="10"/><path d="M65.617 21.216c-2.26 0-4.11 1.733-4.11 4.16 0 2.392 1.85 4.16 4.11 4.16 2.26 0 4.109-1.768 4.109-4.16 0-2.427-1.85-4.16-4.11-4.16zm0 6.656c-1.233 0-2.295-1.04-2.295-2.496 0-1.49 1.062-2.496 2.294-2.496 1.233 0 2.295 1.006 2.295 2.496 0 1.456-1.062 2.496-2.294 2.496zm-8.973-6.656c-2.26 0-4.11 1.733-4.11 4.16 0 2.392 1.85 4.16 4.11 4.16 2.26 0 4.11-1.768 4.11-4.16 0-2.427-1.85-4.16-4.11-4.16zm0 6.656c-1.233 0-2.295-1.04-2.295-2.496 0-1.49 1.062-2.496 2.295-2.496 1.233 0 2.294 1.006 2.294 2.496 0 1.456-1.061 2.496-2.294 2.496zm-10.685-5.408v1.768h4.144c-.137 1.006-.446 1.699-.96 2.219-.616.624-1.54 1.282-3.218 1.282-2.569 0-4.555-2.08-4.555-4.68 0-2.6 2.055-4.68 4.589-4.68 1.37 0 2.397.555 3.15 1.248l1.233-1.247c-1.027-1.006-2.431-1.768-4.349-1.768-3.493 0-6.438 2.877-6.438 6.447 0 3.537 2.945 6.448 6.438 6.448 1.884 0 3.322-.623 4.452-1.802 1.165-1.179 1.507-2.808 1.507-4.126a5.31 5.31 0 00-.103-1.109h-5.89zm43.63 1.387c-.342-.936-1.37-2.635-3.493-2.635-2.123 0-3.87 1.664-3.87 4.16 0 2.323 1.747 4.16 4.075 4.16 1.884 0 2.98-1.178 3.425-1.837l-1.404-.936c-.48.693-1.096 1.144-2.02 1.144-.925 0-1.576-.416-1.987-1.248l5.48-2.288-.206-.52zm-5.582 1.387c-.034-1.595 1.233-2.427 2.157-2.427.72 0 1.336.346 1.507.866l-3.664 1.56zm-4.452 4.02h1.815V17.057h-1.815V29.26zm-2.945-7.14h-.069c-.41-.486-1.164-.936-2.157-.936-2.055 0-3.939 1.837-3.939 4.16 0 2.322 1.884 4.125 3.939 4.125.993 0 1.746-.45 2.157-.936h.069v.59c0 1.594-.822 2.426-2.192 2.426-1.096 0-1.781-.797-2.055-1.49l-1.575.658c.445 1.11 1.644 2.461 3.63 2.461 2.123 0 3.904-1.248 3.904-4.333v-7.384H76.61v.659zm-2.055 5.754c-1.233 0-2.295-1.04-2.295-2.496s1.028-2.53 2.295-2.53c1.233 0 2.192 1.074 2.192 2.53 0 1.421-.96 2.496-2.192 2.496zm23.459-10.816h-4.315v12.168h1.78v-4.61h2.5c1.987 0 3.939-1.457 3.939-3.78 0-2.322-1.884-3.778-3.904-3.778zm.068 5.859h-2.568v-4.16h2.568c1.336 0 2.089 1.11 2.089 2.08 0 .936-.753 2.08-2.089 2.08zm11.096-1.733c-1.301 0-2.637.589-3.219 1.872l1.61.658c.342-.659.958-.901 1.643-.901.925 0 1.884.555 1.884 1.56v.139a4.053 4.053 0 00-1.884-.486c-1.712 0-3.459.97-3.459 2.739 0 1.63 1.405 2.67 2.98 2.67 1.199 0 1.883-.555 2.294-1.18h.069v.936h1.746v-4.645c0-2.15-1.609-3.363-3.664-3.363zm-.205 6.69c-.583 0-1.404-.312-1.404-1.04 0-.936 1.027-1.317 1.917-1.317.788 0 1.165.173 1.644.416-.171 1.144-1.13 1.941-2.157 1.941zm10.171-6.413l-2.055 5.27h-.068l-2.124-5.27h-1.952l3.219 7.384-1.815 4.09h1.884l4.931-11.474h-2.02zm-16.165 7.8h1.781V17.056h-1.781V29.26z" fill="#fff"/><path d="M10.034 7.35c-.274.311-.445.762-.445 1.386v21.563c0 .589.171 1.074.445 1.386l.069.07L22.02 19.69v-.278L10.103 7.28l-.069.07z" fill="url(#paint0_linear)"/><path d="M26.027 23.677l-3.972-4.056v-.277l3.972-4.021.103.034 4.692 2.74c1.335.762 1.335 2.044 0 2.807l-4.726 2.704-.069.07z" fill="url(#paint1_linear)"/><path d="M26.13 23.608l-4.075-4.126-11.986 12.134c.445.485 1.164.52 1.986.07l14.075-8.078z" fill="url(#paint2_linear)"/><path d="M26.13 15.392L12.055 7.28c-.822-.485-1.541-.416-1.986.07l11.986 12.133 4.075-4.091z" fill="url(#paint3_linear)"/><path opacity=".2" d="M26.027 23.539l-13.972 8.008c-.788.45-1.473.416-1.918 0l-.069.069.069.07c.445.415 1.164.45 1.918 0l14.075-8.078-.103-.07z" fill="#000"/><path opacity=".12" d="M10.034 31.512c-.274-.312-.445-.763-.445-1.387v.139c0 .589.171 1.074.445 1.386l.069-.069-.069-.07zm20.788-10.747l-4.795 2.773.103.104 4.692-2.738c.685-.382.993-.902.993-1.422-.034.486-.377.936-.993 1.283z" fill="#000"/><path opacity=".25" d="M12.055 7.418l18.767 10.816c.616.347.959.798.993 1.248 0-.52-.343-1.005-.993-1.42L12.055 7.28c-1.336-.763-2.432-.14-2.432 1.42v.139c-.034-1.526 1.096-2.184 2.432-1.422z" fill="#fff"/></g><defs><linearGradient id="paint0_linear" x1="20.991" y1="8.489" x2="4.634" y2="24.648" gradientUnits="userSpaceOnUse"><stop stop-color="#00A0FF"/><stop offset=".007" stop-color="#00A1FF"/><stop offset=".26" stop-color="#00BEFF"/><stop offset=".512" stop-color="#00D2FF"/><stop offset=".76" stop-color="#00DFFF"/><stop offset="1" stop-color="#00E3FF"/></linearGradient><linearGradient id="paint1_linear" x1="32.579" y1="19.496" x2="9.28" y2="19.496" gradientUnits="userSpaceOnUse"><stop stop-color="#FFE000"/><stop offset=".409" stop-color="#FFBD00"/><stop offset=".775" stop-color="orange"/><stop offset="1" stop-color="#FF9C00"/></linearGradient><linearGradient id="paint2_linear" x1="23.906" y1="21.732" x2="1.725" y2="43.644" gradientUnits="userSpaceOnUse"><stop stop-color="#FF3A44"/><stop offset="1" stop-color="#C31162"/></linearGradient><linearGradient id="paint3_linear" x1="7.026" y1=".172" x2="16.931" y2="9.956" gradientUnits="userSpaceOnUse"><stop stop-color="#32A071"/><stop offset=".069" stop-color="#2DA771"/><stop offset=".476" stop-color="#15CF74"/><stop offset=".801" stop-color="#06E775"/><stop offset="1" stop-color="#00F076"/></linearGradient><clipPath id="clip0"><path fill="#fff" d="M0 0h130v39H0z"/></clipPath></defs></svg>